<?xml version="1.0" encoding="UTF-8" standalone="no"?>
<!DOCTYPE svg PUBLIC "-//W3C//DTD SVG 1.1//EN"
 "http://www.w3.org/Graphics/SVG/1.1/DTD/svg11.dtd">
<!-- Generated by graphviz version 3.0.0 (0)
 -->
<!-- Title: Merged Pages: 1 -->
<svg width="2195pt" height="266pt"
 viewBox="0.00 0.00 2195.00 266.00" xmlns="http://www.w3.org/2000/svg" xmlns:xlink="http://www.w3.org/1999/xlink">
<g id="graph0" class="graph" transform="scale(1 1) rotate(0) translate(4 262)">
<title>Merged</title>
<polygon fill="white" stroke="transparent" points="-4,4 -4,-262 2191,-262 2191,4 -4,4"/>
<!-- ProgrammingError -->
<g id="node1" class="node">
<title>ProgrammingError</title>
<g id="a_node1"><a xlink:href="$class_programming_error.html" xlink:title="Base class programozói hibáknak.">
<polygon fill="white" stroke="black" points="756.5,-116.5 756.5,-184.5 923.5,-184.5 923.5,-116.5 756.5,-116.5"/>
<text text-anchor="middle" x="840" y="-172.5" font-family="Helvetica,sans-Serif" font-size="10.00">ProgrammingError</text>
<polyline fill="none" stroke="black" points="756.5,-165.5 923.5,-165.5 "/>
<text text-anchor="start" x="764.5" y="-153.5" font-family="Helvetica,sans-Serif" font-size="10.00"># char * whatData</text>
<polyline fill="none" stroke="black" points="756.5,-146.5 923.5,-146.5 "/>
<text text-anchor="start" x="764.5" y="-134.5" font-family="Helvetica,sans-Serif" font-size="10.00">+ virtual ~ProgrammingError()</text>
<text text-anchor="start" x="764.5" y="-123.5" font-family="Helvetica,sans-Serif" font-size="10.00">+ const char * what() const</text>
</a>
</g>
</g>
<!-- VariableAlreadyDefinedError -->
<g id="node2" class="node">
<title>VariableAlreadyDefinedError</title>
<g id="a_node2"><a xlink:href="$class_variable_already_defined_error.html" xlink:title="Már definiált változó">
<polygon fill="white" stroke="black" points="0,-6 0,-74 196,-74 196,-6 0,-6"/>
<text text-anchor="middle" x="98" y="-62" font-family="Helvetica,sans-Serif" font-size="10.00">VariableAlreadyDefinedError</text>
<polyline fill="none" stroke="black" points="0,-55 196,-55 "/>
<text text-anchor="middle" x="98" y="-43" font-family="Helvetica,sans-Serif" font-size="10.00"> </text>
<polyline fill="none" stroke="black" points="0,-36 196,-36 "/>
<text text-anchor="start" x="8" y="-24" font-family="Helvetica,sans-Serif" font-size="10.00">+ VariableAlreadyDefinedError(const</text>
<text text-anchor="start" x="8" y="-13" font-family="Helvetica,sans-Serif" font-size="10.00"> Identifier *var)</text>
</a>
</g>
</g>
<!-- ProgrammingError&#45;&gt;VariableAlreadyDefinedError -->
<g id="edge1" class="edge">
<title>ProgrammingError&#45;&gt;VariableAlreadyDefinedError</title>
<path fill="none" stroke="midnightblue" d="M746.18,-146.27C621.22,-140.38 393.95,-124.1 205,-80 197.78,-78.31 190.38,-76.29 183,-74.05"/>
<polygon fill="none" stroke="midnightblue" points="746.33,-149.78 756.48,-146.74 746.65,-142.79 746.33,-149.78"/>
</g>
<!-- VariableReassignmentError -->
<g id="node4" class="node">
<title>VariableReassignmentError</title>
<g id="a_node4"><a xlink:href="$class_variable_reassignment_error.html" xlink:title="Újraértékadás.">
<polygon fill="white" stroke="black" points="214.5,-6 214.5,-74 405.5,-74 405.5,-6 214.5,-6"/>
<text text-anchor="middle" x="310" y="-62" font-family="Helvetica,sans-Serif" font-size="10.00">VariableReassignmentError</text>
<polyline fill="none" stroke="black" points="214.5,-55 405.5,-55 "/>
<text text-anchor="middle" x="310" y="-43" font-family="Helvetica,sans-Serif" font-size="10.00"> </text>
<polyline fill="none" stroke="black" points="214.5,-36 405.5,-36 "/>
<text text-anchor="start" x="222.5" y="-24" font-family="Helvetica,sans-Serif" font-size="10.00">+ VariableReassignmentError(const</text>
<text text-anchor="start" x="222.5" y="-13" font-family="Helvetica,sans-Serif" font-size="10.00"> Identifier *to)</text>
</a>
</g>
</g>
<!-- ProgrammingError&#45;&gt;VariableReassignmentError -->
<g id="edge3" class="edge">
<title>ProgrammingError&#45;&gt;VariableReassignmentError</title>
<path fill="none" stroke="midnightblue" d="M746.23,-139.46C659.38,-128.91 527.1,-109.69 415,-80 408.33,-78.23 401.49,-76.21 394.65,-74.03"/>
<polygon fill="none" stroke="midnightblue" points="745.99,-142.95 756.33,-140.67 746.82,-136 745.99,-142.95"/>
</g>
<!-- EmptyParameterListError -->
<g id="node7" class="node">
<title>EmptyParameterListError</title>
<g id="a_node7"><a xlink:href="$class_empty_parameter_list_error.html" xlink:title="Paraméter nélkül modul.">
<polygon fill="white" stroke="black" points="424,-6 424,-74 616,-74 616,-6 424,-6"/>
<text text-anchor="middle" x="520" y="-62" font-family="Helvetica,sans-Serif" font-size="10.00">EmptyParameterListError</text>
<polyline fill="none" stroke="black" points="424,-55 616,-55 "/>
<text text-anchor="middle" x="520" y="-43" font-family="Helvetica,sans-Serif" font-size="10.00"> </text>
<polyline fill="none" stroke="black" points="424,-36 616,-36 "/>
<text text-anchor="start" x="432" y="-24" font-family="Helvetica,sans-Serif" font-size="10.00">+ EmptyParameterListError(Token t)</text>
<text text-anchor="start" x="432" y="-13" font-family="Helvetica,sans-Serif" font-size="10.00">+ ~EmptyParameterListError()</text>
</a>
</g>
</g>
<!-- ProgrammingError&#45;&gt;EmptyParameterListError -->
<g id="edge6" class="edge">
<title>ProgrammingError&#45;&gt;EmptyParameterListError</title>
<path fill="none" stroke="midnightblue" d="M746.28,-120.17C708.48,-108.09 664.55,-93.73 625,-80 619.49,-78.09 613.83,-76.09 608.13,-74.05"/>
<polygon fill="none" stroke="midnightblue" points="745.66,-123.65 756.25,-123.35 747.79,-116.98 745.66,-123.65"/>
</g>
<!-- MismatchedParametersError -->
<g id="node8" class="node">
<title>MismatchedParametersError</title>
<g id="a_node8"><a xlink:href="$class_mismatched_parameters_error.html" xlink:title="Eltérő paraméterszám.">
<polygon fill="white" stroke="black" points="634.5,-6 634.5,-74 831.5,-74 831.5,-6 634.5,-6"/>
<text text-anchor="middle" x="733" y="-62" font-family="Helvetica,sans-Serif" font-size="10.00">MismatchedParametersError</text>
<polyline fill="none" stroke="black" points="634.5,-55 831.5,-55 "/>
<text text-anchor="middle" x="733" y="-43" font-family="Helvetica,sans-Serif" font-size="10.00"> </text>
<polyline fill="none" stroke="black" points="634.5,-36 831.5,-36 "/>
<text text-anchor="start" x="642.5" y="-24" font-family="Helvetica,sans-Serif" font-size="10.00">+ MismatchedParametersError(const</text>
<text text-anchor="start" x="642.5" y="-13" font-family="Helvetica,sans-Serif" font-size="10.00"> Identifier *at)</text>
</a>
</g>
</g>
<!-- ProgrammingError&#45;&gt;MismatchedParametersError -->
<g id="edge7" class="edge">
<title>ProgrammingError&#45;&gt;MismatchedParametersError</title>
<path fill="none" stroke="midnightblue" d="M800.06,-109C788.79,-97.57 776.66,-85.27 765.85,-74.31"/>
<polygon fill="none" stroke="midnightblue" points="797.8,-111.69 807.32,-116.36 802.79,-106.78 797.8,-111.69"/>
</g>
<!-- ModuleAlreadyDefinedError -->
<g id="node9" class="node">
<title>ModuleAlreadyDefinedError</title>
<g id="a_node9"><a xlink:href="$class_module_already_defined_error.html" xlink:title="A modul már definiálva van.">
<polygon fill="white" stroke="black" points="850,-6 850,-74 1044,-74 1044,-6 850,-6"/>
<text text-anchor="middle" x="947" y="-62" font-family="Helvetica,sans-Serif" font-size="10.00">ModuleAlreadyDefinedError</text>
<polyline fill="none" stroke="black" points="850,-55 1044,-55 "/>
<text text-anchor="middle" x="947" y="-43" font-family="Helvetica,sans-Serif" font-size="10.00"> </text>
<polyline fill="none" stroke="black" points="850,-36 1044,-36 "/>
<text text-anchor="start" x="858" y="-24" font-family="Helvetica,sans-Serif" font-size="10.00">+ ModuleAlreadyDefinedError(Token</text>
<text text-anchor="start" x="858" y="-13" font-family="Helvetica,sans-Serif" font-size="10.00"> identifier)</text>
</a>
</g>
</g>
<!-- ProgrammingError&#45;&gt;ModuleAlreadyDefinedError -->
<g id="edge8" class="edge">
<title>ProgrammingError&#45;&gt;ModuleAlreadyDefinedError</title>
<path fill="none" stroke="midnightblue" d="M879.94,-109C891.21,-97.57 903.34,-85.27 914.15,-74.31"/>
<polygon fill="none" stroke="midnightblue" points="877.21,-106.78 872.68,-116.36 882.2,-111.69 877.21,-106.78"/>
</g>
<!-- ModuleNotDefinedError -->
<g id="node10" class="node">
<title>ModuleNotDefinedError</title>
<g id="a_node10"><a xlink:href="$class_module_not_defined_error.html" xlink:title="Definiálatlan modul.">
<polygon fill="white" stroke="black" points="1062.5,-11.5 1062.5,-68.5 1329.5,-68.5 1329.5,-11.5 1062.5,-11.5"/>
<text text-anchor="middle" x="1196" y="-56.5" font-family="Helvetica,sans-Serif" font-size="10.00">ModuleNotDefinedError</text>
<polyline fill="none" stroke="black" points="1062.5,-49.5 1329.5,-49.5 "/>
<text text-anchor="middle" x="1196" y="-37.5" font-family="Helvetica,sans-Serif" font-size="10.00"> </text>
<polyline fill="none" stroke="black" points="1062.5,-30.5 1329.5,-30.5 "/>
<text text-anchor="start" x="1070.5" y="-18.5" font-family="Helvetica,sans-Serif" font-size="10.00">+ ModuleNotDefinedError(const Identifier *module)</text>
</a>
</g>
</g>
<!-- ProgrammingError&#45;&gt;ModuleNotDefinedError -->
<g id="edge9" class="edge">
<title>ProgrammingError&#45;&gt;ModuleNotDefinedError</title>
<path fill="none" stroke="midnightblue" d="M933.67,-120.95C986.78,-104.77 1052.9,-84.61 1105.48,-68.59"/>
<polygon fill="none" stroke="midnightblue" points="932.46,-117.66 923.92,-123.92 934.5,-124.36 932.46,-117.66"/>
</g>
<!-- UndefinedVariableError -->
<g id="node11" class="node">
<title>UndefinedVariableError</title>
<g id="a_node11"><a xlink:href="$class_undefined_variable_error.html" xlink:title="Definiálatlan változó">
<polygon fill="white" stroke="black" points="1347.5,-11.5 1347.5,-68.5 1592.5,-68.5 1592.5,-11.5 1347.5,-11.5"/>
<text text-anchor="middle" x="1470" y="-56.5" font-family="Helvetica,sans-Serif" font-size="10.00">UndefinedVariableError</text>
<polyline fill="none" stroke="black" points="1347.5,-49.5 1592.5,-49.5 "/>
<text text-anchor="middle" x="1470" y="-37.5" font-family="Helvetica,sans-Serif" font-size="10.00"> </text>
<polyline fill="none" stroke="black" points="1347.5,-30.5 1592.5,-30.5 "/>
<text text-anchor="start" x="1355.5" y="-18.5" font-family="Helvetica,sans-Serif" font-size="10.00">+ UndefinedVariableError(const Identifier *var)</text>
</a>
</g>
</g>
<!-- ProgrammingError&#45;&gt;UndefinedVariableError -->
<g id="edge10" class="edge">
<title>ProgrammingError&#45;&gt;UndefinedVariableError</title>
<path fill="none" stroke="midnightblue" d="M934.08,-140.58C1034.76,-130.06 1198.8,-110.1 1338,-80 1352.83,-76.79 1368.43,-72.78 1383.49,-68.55"/>
<polygon fill="none" stroke="midnightblue" points="933.52,-137.12 923.94,-141.63 934.24,-144.09 933.52,-137.12"/>
</g>
<!-- std::exception -->
<g id="node3" class="node">
<title>std::exception</title>
<polygon fill="none" stroke="black" points="1179,-221.5 1179,-257.5 1265,-257.5 1265,-221.5 1179,-221.5"/>
<text text-anchor="middle" x="1222" y="-237" font-family="Helvetica,sans-Serif" font-size="10.00">std::exception</text>
</g>
<!-- std::exception&#45;&gt;ProgrammingError -->
<g id="edge2" class="edge">
<title>std::exception&#45;&gt;ProgrammingError</title>
<path fill="none" stroke="midnightblue" d="M1169.13,-226.46C1105.71,-212.02 998.61,-187.62 923.87,-170.6"/>
<polygon fill="none" stroke="midnightblue" points="1168.39,-229.88 1178.92,-228.69 1169.95,-223.06 1168.39,-229.88"/>
</g>
<!-- ParserError -->
<g id="node5" class="node">
<title>ParserError</title>
<g id="a_node5"><a xlink:href="$class_parser_error.html" xlink:title="Base class feldolgozás közbeni hibáknak.">
<polygon fill="white" stroke="black" points="1746,-116.5 1746,-184.5 1896,-184.5 1896,-116.5 1746,-116.5"/>
<text text-anchor="middle" x="1821" y="-172.5" font-family="Helvetica,sans-Serif" font-size="10.00">ParserError</text>
<polyline fill="none" stroke="black" points="1746,-165.5 1896,-165.5 "/>
<text text-anchor="start" x="1754" y="-153.5" font-family="Helvetica,sans-Serif" font-size="10.00"># char * whatData</text>
<polyline fill="none" stroke="black" points="1746,-146.5 1896,-146.5 "/>
<text text-anchor="start" x="1754" y="-134.5" font-family="Helvetica,sans-Serif" font-size="10.00">+ const char * what() const</text>
<text text-anchor="start" x="1754" y="-123.5" font-family="Helvetica,sans-Serif" font-size="10.00">+ virtual ~ParserError()</text>
</a>
</g>
</g>
<!-- std::exception&#45;&gt;ParserError -->
<g id="edge5" class="edge">
<title>std::exception&#45;&gt;ParserError</title>
<path fill="none" stroke="midnightblue" d="M1274.98,-230.81C1381.69,-215.31 1622.78,-180.29 1745.77,-162.43"/>
<polygon fill="none" stroke="midnightblue" points="1274.47,-227.34 1265.08,-232.24 1275.48,-234.27 1274.47,-227.34"/>
</g>
<!-- UnexpectedSymbolError -->
<g id="node6" class="node">
<title>UnexpectedSymbolError</title>
<g id="a_node6"><a xlink:href="$class_unexpected_symbol_error.html" xlink:title="Váratlan token hiba.">
<polygon fill="white" stroke="black" points="1611,-6 1611,-74 1811,-74 1811,-6 1611,-6"/>
<text text-anchor="middle" x="1711" y="-62" font-family="Helvetica,sans-Serif" font-size="10.00">UnexpectedSymbolError</text>
<polyline fill="none" stroke="black" points="1611,-55 1811,-55 "/>
<text text-anchor="middle" x="1711" y="-43" font-family="Helvetica,sans-Serif" font-size="10.00"> </text>
<polyline fill="none" stroke="black" points="1611,-36 1811,-36 "/>
<text text-anchor="start" x="1619" y="-24" font-family="Helvetica,sans-Serif" font-size="10.00">+ UnexpectedSymbolError(Token got)</text>
<text text-anchor="start" x="1619" y="-13" font-family="Helvetica,sans-Serif" font-size="10.00">+ ~UnexpectedSymbolError()</text>
</a>
</g>
</g>
<!-- ParserError&#45;&gt;UnexpectedSymbolError -->
<g id="edge4" class="edge">
<title>ParserError&#45;&gt;UnexpectedSymbolError</title>
<path fill="none" stroke="midnightblue" d="M1780.27,-109.32C1768.59,-97.8 1755.99,-85.37 1744.77,-74.31"/>
<polygon fill="none" stroke="midnightblue" points="1777.82,-111.83 1787.4,-116.36 1782.74,-106.84 1777.82,-111.83"/>
</g>
<!-- TokenExpectedError -->
<g id="node12" class="node">
<title>TokenExpectedError</title>
<g id="a_node12"><a xlink:href="$class_token_expected_error.html" xlink:title="Várt token hiba.">
<polygon fill="white" stroke="black" points="1829,-0.5 1829,-79.5 2035,-79.5 2035,-0.5 1829,-0.5"/>
<text text-anchor="middle" x="1932" y="-67.5" font-family="Helvetica,sans-Serif" font-size="10.00">TokenExpectedError</text>
<polyline fill="none" stroke="black" points="1829,-60.5 2035,-60.5 "/>
<text text-anchor="middle" x="1932" y="-48.5" font-family="Helvetica,sans-Serif" font-size="10.00"> </text>
<polyline fill="none" stroke="black" points="1829,-41.5 2035,-41.5 "/>
<text text-anchor="start" x="1837" y="-29.5" font-family="Helvetica,sans-Serif" font-size="10.00">+ TokenExpectedError(Token expected,</text>
<text text-anchor="start" x="1837" y="-18.5" font-family="Helvetica,sans-Serif" font-size="10.00"> Token got)</text>
<text text-anchor="start" x="1837" y="-7.5" font-family="Helvetica,sans-Serif" font-size="10.00">+ ~TokenExpectedError()</text>
</a>
</g>
</g>
<!-- ParserError&#45;&gt;TokenExpectedError -->
<g id="edge11" class="edge">
<title>ParserError&#45;&gt;TokenExpectedError</title>
<path fill="none" stroke="midnightblue" d="M1862.3,-109.13C1872.17,-99.48 1882.68,-89.21 1892.46,-79.65"/>
<polygon fill="none" stroke="midnightblue" points="1859.61,-106.86 1854.91,-116.36 1864.5,-111.87 1859.61,-106.86"/>
</g>
<!-- UnableToRepresentError -->
<g id="node13" class="node">
<title>UnableToRepresentError</title>
<g id="a_node13"><a xlink:href="$class_unable_to_represent_error.html" xlink:title="Túlcsordulási hiba.">
<polygon fill="white" stroke="black" points="2053,-11.5 2053,-68.5 2187,-68.5 2187,-11.5 2053,-11.5"/>
<text text-anchor="middle" x="2120" y="-56.5" font-family="Helvetica,sans-Serif" font-size="10.00">UnableToRepresentError</text>
<polyline fill="none" stroke="black" points="2053,-49.5 2187,-49.5 "/>
<text text-anchor="middle" x="2120" y="-37.5" font-family="Helvetica,sans-Serif" font-size="10.00"> </text>
<polyline fill="none" stroke="black" points="2053,-30.5 2187,-30.5 "/>
<text text-anchor="middle" x="2120" y="-18.5" font-family="Helvetica,sans-Serif" font-size="10.00"> </text>
</a>
</g>
</g>
<!-- ParserError&#45;&gt;UnableToRepresentError -->
<g id="edge12" class="edge">
<title>ParserError&#45;&gt;UnableToRepresentError</title>
<path fill="none" stroke="#8b1a1a" d="M1905.88,-126.78C1948.02,-114.56 1999.34,-98.26 2044,-80 2052.24,-76.63 2060.79,-72.7 2069.05,-68.66"/>
<polygon fill="none" stroke="#8b1a1a" points="1904.85,-123.43 1896.21,-129.56 1906.79,-130.16 1904.85,-123.43"/>
</g>
</g>
</svg>
